<?xml version="1.0" standalone="no"?>
<!DOCTYPE svg PUBLIC "-//W3C//DTD SVG 20010904//EN"
 "http://www.w3.org/TR/2001/REC-SVG-20010904/DTD/svg10.dtd">
<svg version="1.0" xmlns="http://www.w3.org/2000/svg"
 width="2396.000000pt" height="2396.000000pt" viewBox="0 0 2396.000000 2396.000000"
 preserveAspectRatio="xMidYMid meet">

<g transform="translate(0.000000,2396.000000) scale(0.100000,-0.100000)"
fill="#000000" stroke="none">
<path d="M10050 23880 c-55 -82 -127 -166 -303 -357 -205 -221 -250 -285 -371
-523 -119 -235 -149 -310 -144 -365 6 -75 79 -94 348 -95 172 0 214 -8 407
-70 142 -46 218 -52 270 -20 43 26 97 102 118 165 18 54 34 241 35 402 0 57
11 177 26 270 49 323 27 484 -81 611 l-37 42 -113 0 -114 0 -41 -60z"/>
<path d="M13303 23835 c-45 -19 -89 -85 -120 -179 -35 -109 -42 -293 -18 -542
9 -98 20 -251 25 -339 9 -176 23 -236 70 -308 23 -34 47 -54 88 -74 62 -31 36
-29 372 -22 l135 3 200 -53 c110 -30 219 -56 243 -58 52 -6 90 8 128 48 45 47
38 79 -54 231 -44 73 -121 210 -172 303 -51 94 -107 193 -125 220 -17 28 -67
111 -110 185 -43 74 -105 175 -138 224 -107 156 -282 313 -397 357 -59 22 -84
23 -127 4z"/>
<path d="M9461 22160 c-205 -43 -597 -222 -898 -409 -370 -230 -677 -474 -994
-790 -269 -270 -420 -442 -802 -921 -327 -407 -450 -600 -562 -880 -134 -334
-167 -558 -181 -1220 -21 -963 125 -1722 462 -2410 87 -179 163 -305 266 -442
256 -340 611 -643 1093 -933 322 -194 421 -229 650 -228 144 0 198 7 495 63
113 21 246 44 295 50 519 64 957 295 1227 646 218 284 358 728 358 1136 0 76
7 153 20 220 121 622 155 1437 95 2248 -76 1014 -174 1633 -410 2570 -83 332
-124 459 -196 602 -102 206 -207 342 -380 489 -128 109 -206 159 -292 189 -72
24 -183 33 -246 20z"/>
<path d="M13265 22040 c-167 -26 -382 -113 -501 -203 -140 -106 -276 -271
-359 -436 -60 -121 -181 -520 -215 -710 -38 -213 -41 -275 -50 -1016 -12 -977
-15 -1022 -116 -1660 -175 -1104 -197 -1310 -198 -1810 -1 -336 4 -400 56
-650 57 -279 181 -610 318 -845 47 -81 227 -366 348 -550 190 -290 333 -417
595 -530 311 -133 598 -187 937 -177 261 8 470 47 716 135 433 155 899 469
1222 824 469 516 731 1157 817 1998 35 334 29 959 -11 1270 -68 526 -253 1007
-745 1937 -83 158 -216 414 -294 568 -78 154 -168 325 -200 380 -82 143 -249
393 -345 515 -108 138 -390 417 -512 508 -302 225 -589 358 -937 433 -110 23
-422 35 -526 19z"/>
<path d="M4413 17905 c-47 -20 -305 -269 -374 -361 -106 -141 -200 -361 -244
-574 -49 -234 -118 -924 -101 -1011 3 -20 22 -54 42 -77 31 -36 41 -42 75 -42
43 0 45 2 132 103 62 73 162 144 243 174 140 50 284 49 570 -7 125 -24 161
-35 210 -64 102 -62 166 -40 195 66 18 68 4 116 -73 249 -144 249 -226 451
-292 720 -51 206 -86 404 -97 554 -14 184 -41 232 -150 270 -51 18 -94 18
-136 0z"/>
<path d="M18491 17722 c-51 -25 -74 -63 -74 -115 1 -25 6 -54 12 -66 9 -17 5
-57 -18 -189 -87 -486 -150 -1000 -130 -1059 13 -40 50 -68 110 -83 37 -9 64
-7 174 15 228 46 457 45 713 -5 141 -28 210 -11 232 55 14 42 3 82 -43 159
-16 28 -109 213 -207 411 -246 500 -357 660 -575 830 -93 72 -129 81 -194 47z"/>
<path d="M18600 15850 c-249 -34 -456 -146 -661 -357 -149 -154 -191 -214
-502 -728 -424 -700 -557 -968 -972 -1960 -213 -509 -341 -797 -471 -1057
-131 -262 -177 -372 -220 -528 -152 -551 -111 -1218 116 -1885 246 -721 665
-1316 1159 -1647 208 -139 411 -224 651 -272 288 -57 495 -78 770 -79 486 0
873 90 1285 297 254 128 507 308 800 567 345 304 622 668 791 1039 69 151 240
641 278 795 193 787 191 1539 -4 2125 -36 106 -114 279 -173 385 -82 144 -192
389 -394 875 -165 398 -253 594 -346 770 -289 551 -574 907 -1002 1253 -243
196 -530 343 -767 391 -97 20 -254 27 -338 16z"/>
<path d="M4485 15680 c-93 -24 -130 -41 -255 -113 -151 -86 -222 -139 -334
-247 -174 -168 -298 -337 -518 -705 -657 -1099 -1026 -2095 -1158 -3130 -20
-154 -22 -200 -17 -480 5 -241 10 -340 26 -445 28 -179 81 -392 143 -565 27
-77 70 -198 94 -268 144 -414 301 -702 517 -952 361 -418 885 -674 1512 -740
33 -4 96 -14 140 -23 109 -23 455 -22 654 1 223 27 394 94 521 204 25 21 81
61 125 88 218 135 435 333 629 575 102 128 281 391 602 887 199 307 280 475
354 738 29 104 30 117 30 304 0 814 -157 1507 -495 2181 -136 271 -286 498
-649 980 -143 190 -296 392 -339 450 -43 58 -145 204 -227 325 -224 333 -344
467 -617 685 -203 164 -319 230 -452 259 -77 16 -206 13 -286 -9z"/>
<path d="M11280 12043 c-340 -33 -565 -83 -866 -193 -742 -272 -1392 -719
-1898 -1305 -62 -71 -193 -233 -291 -359 -468 -603 -985 -1215 -1639 -1941
-367 -407 -534 -581 -819 -852 -629 -599 -716 -684 -878 -858 -378 -407 -598
-709 -783 -1075 -243 -480 -365 -982 -391 -1615 -11 -281 32 -877 85 -1175 66
-366 190 -692 378 -992 322 -514 772 -885 1457 -1201 306 -141 709 -295 973
-371 303 -88 363 -99 542 -99 330 1 893 66 1200 138 58 13 152 34 210 46 227
46 372 107 582 247 431 285 832 422 1573 537 468 73 699 89 1154 82 660 -10
1181 -98 1926 -322 913 -275 1513 -385 2100 -385 447 0 798 56 1197 190 618
208 1288 652 1631 1080 173 216 309 461 390 706 51 156 125 494 156 714 87
626 33 1200 -164 1725 -78 211 -241 511 -362 668 -66 86 -532 709 -678 907
-92 125 -144 185 -224 257 -213 193 -412 323 -595 391 -319 117 -652 299 -876
479 -63 51 -257 256 -412 435 -120 139 -473 692 -1173 1833 -383 626 -513 826
-640 985 -275 345 -565 605 -880 790 -621 363 -1234 545 -1815 538 -74 -1
-151 -3 -170 -5z"/>
</g>
</svg>
